<svg width="16" height="15" viewBox="0 0 16 15" fill="none" xmlns="http://www.w3.org/2000/svg">
<path d="M0 1.86273C0 1.3687 0.16474 0.89491 0.457978 0.545581C0.751217 0.196251 1.14893 0 1.56364 0H14.0727C14.4874 0 14.8851 0.196251 15.1784 0.545581C15.4716 0.89491 15.6364 1.3687 15.6364 1.86273V13.0391C15.6364 13.5331 15.4716 14.0069 15.1784 14.3563C14.8851 14.7056 14.4874 14.9018 14.0727 14.9018H1.56364C1.14893 14.9018 0.751217 14.7056 0.457978 14.3563C0.16474 14.0069 0 13.5331 0 13.0391V1.86273ZM2.75122 1.86273L7.81818 7.1445L12.8851 1.86273H2.752H2.75122ZM14.0727 3.10051L8.3334 9.0836C8.19083 9.23241 8.00773 9.31445 7.81818 9.31445C7.62863 9.31445 7.44553 9.23241 7.30296 9.0836L1.56364 3.10051V13.0391H14.0727V3.10051Z" fill="#828282"/>
</svg>
