<svg width="13" height="18" viewBox="0 0 13 18" fill="none" xmlns="http://www.w3.org/2000/svg">
<path d="M6.41423 1.70287C5.65816 1.70287 4.93306 2.06168 4.39843 2.70038C3.86381 3.33908 3.56346 4.20534 3.56346 5.1086C3.56346 6.01185 3.86381 6.87811 4.39843 7.51681C4.93306 8.15551 5.65816 8.51433 6.41423 8.51433C7.1703 8.51433 7.89541 8.15551 8.43003 7.51681C8.96466 6.87811 9.265 6.01185 9.265 5.1086C9.265 4.20534 8.96466 3.33908 8.43003 2.70038C7.89541 2.06168 7.1703 1.70287 6.41423 1.70287ZM2.13808 5.1086C2.13808 3.75371 2.5886 2.45432 3.39053 1.49627C4.19247 0.538226 5.28013 0 6.41423 0C7.54834 0 8.636 0.538226 9.43793 1.49627C10.2399 2.45432 10.6904 3.75371 10.6904 5.1086C10.6904 6.46348 10.2399 7.76287 9.43793 8.72092C8.636 9.67897 7.54834 10.2172 6.41423 10.2172C5.28013 10.2172 4.19247 9.67897 3.39053 8.72092C2.5886 7.76287 2.13808 6.46348 2.13808 5.1086V5.1086ZM3.56346 13.6229C2.99641 13.6229 2.45258 13.892 2.05161 14.3711C1.65065 14.8501 1.42539 15.4998 1.42539 16.1772C1.42539 16.403 1.3503 16.6196 1.21664 16.7793C1.08299 16.939 0.90171 17.0287 0.712693 17.0287C0.523675 17.0287 0.342399 16.939 0.208743 16.7793C0.075087 16.6196 0 16.403 0 16.1772C0 15.0482 0.375435 13.9653 1.04371 13.167C1.71199 12.3686 2.61837 11.9201 3.56346 11.9201H9.265C10.2101 11.9201 11.1165 12.3686 11.7848 13.167C12.453 13.9653 12.8285 15.0482 12.8285 16.1772C12.8285 16.403 12.7534 16.6196 12.6197 16.7793C12.4861 16.939 12.3048 17.0287 12.1158 17.0287C11.9268 17.0287 11.7455 16.939 11.6118 16.7793C11.4782 16.6196 11.4031 16.403 11.4031 16.1772C11.4031 15.4998 11.1778 14.8501 10.7769 14.3711C10.3759 13.892 9.83206 13.6229 9.265 13.6229H3.56346Z" fill="#828282"/>
</svg>
