<svg width="14" height="20" viewBox="0 0 14 20" fill="none" xmlns="http://www.w3.org/2000/svg">
<path d="M6.88745 1.9093C8.30626 1.9093 9.47024 3.19998 9.47024 4.77324V7.63719H4.30465V4.77324C4.30465 3.19998 5.46863 1.9093 6.88745 1.9093ZM11.1921 7.63719V4.77324C11.1921 2.14605 9.25673 0 6.88745 0C4.51816 0 2.58279 2.14605 2.58279 4.77324V7.63719H1.72186C1.2652 7.63719 0.827233 7.83835 0.504321 8.19641C0.18141 8.55447 0 9.04011 0 9.54649V17.1837C0 17.6901 0.18141 18.1757 0.504321 18.5338C0.827233 18.8918 1.2652 19.093 1.72186 19.093H12.053C12.5097 19.093 12.9477 18.8918 13.2706 18.5338C13.5935 18.1757 13.7749 17.6901 13.7749 17.1837V9.54649C13.7749 9.04011 13.5935 8.55447 13.2706 8.19641C12.9477 7.83835 12.5097 7.63719 12.053 7.63719H11.1921ZM1.72186 9.54649H12.053V17.1837H1.72186V9.54649Z" fill="#828282"/>
</svg>
