<svg width="15" height="18" viewBox="0 0 15 18" fill="none" xmlns="http://www.w3.org/2000/svg">
<path d="M7.07359 1.72302C6.2398 1.72302 5.44016 2.08609 4.85058 2.73235C4.261 3.37861 3.92977 4.25513 3.92977 5.16907C3.92977 6.08302 4.261 6.95954 4.85058 7.6058C5.44016 8.25206 6.2398 8.61512 7.07359 8.61512C7.90739 8.61512 8.70703 8.25206 9.29661 7.6058C9.88619 6.95954 10.2174 6.08302 10.2174 5.16907C10.2174 4.25513 9.88619 3.37861 9.29661 2.73235C8.70703 2.08609 7.90739 1.72302 7.07359 1.72302ZM2.35786 5.16907C2.35786 3.79815 2.8547 2.48338 3.73907 1.51399C4.62344 0.544597 5.8229 0 7.07359 0C8.32428 0 9.52375 0.544597 10.4081 1.51399C11.2925 2.48338 11.7893 3.79815 11.7893 5.16907C11.7893 6.54 11.2925 7.85477 10.4081 8.82416C9.52375 9.79355 8.32428 10.3381 7.07359 10.3381C5.8229 10.3381 4.62344 9.79355 3.73907 8.82416C2.8547 7.85477 2.35786 6.54 2.35786 5.16907V5.16907ZM3.92977 13.7842C3.30443 13.7842 2.7047 14.0565 2.26251 14.5412C1.82033 15.0259 1.57191 15.6833 1.57191 16.3687C1.57191 16.5972 1.4891 16.8164 1.34171 16.9779C1.19431 17.1395 0.994403 17.2302 0.785955 17.2302C0.577507 17.2302 0.377596 17.1395 0.230201 16.9779C0.0828057 16.8164 0 16.5972 0 16.3687C0 15.2263 0.414029 14.1307 1.151 13.3228C1.88798 12.515 2.88753 12.0612 3.92977 12.0612H10.2174C11.2597 12.0612 12.2592 12.515 12.9962 13.3228C13.7332 14.1307 14.1472 15.2263 14.1472 16.3687C14.1472 16.5972 14.0644 16.8164 13.917 16.9779C13.7696 17.1395 13.5697 17.2302 13.3612 17.2302C13.1528 17.2302 12.9529 17.1395 12.8055 16.9779C12.6581 16.8164 12.5753 16.5972 12.5753 16.3687C12.5753 15.6833 12.3269 15.0259 11.8847 14.5412C11.4425 14.0565 10.8428 13.7842 10.2174 13.7842H3.92977Z" fill="#828282"/>
</svg>
