<svg width="13" height="19" viewBox="0 0 13 19" fill="none" xmlns="http://www.w3.org/2000/svg">
<path d="M6.24544 1.88696C7.532 1.88696 8.58748 3.16254 8.58748 4.7174V7.54784H3.9034V4.7174C3.9034 3.16254 4.95888 1.88696 6.24544 1.88696ZM10.1488 7.54784V4.7174C10.1488 2.12094 8.39387 0 6.24544 0C4.09701 0 2.34204 2.12094 2.34204 4.7174V7.54784H1.56136C1.14726 7.54784 0.750123 7.74664 0.457312 8.10051C0.1645 8.45439 0 8.93434 0 9.43479V16.9826C0 17.4831 0.1645 17.963 0.457312 18.3169C0.750123 18.6708 1.14726 18.8696 1.56136 18.8696H10.9295C11.3436 18.8696 11.7408 18.6708 12.0336 18.3169C12.3264 17.963 12.4909 17.4831 12.4909 16.9826V9.43479C12.4909 8.93434 12.3264 8.45439 12.0336 8.10051C11.7408 7.74664 11.3436 7.54784 10.9295 7.54784H10.1488ZM1.56136 9.43479H10.9295V16.9826H1.56136V9.43479Z" fill="#828282"/>
</svg>
